<svg width="35" height="35" viewBox="0 0 35 35" fill="none" xmlns="http://www.w3.org/2000/svg">
<path d="M10.7266 23.6797C10.7266 23.8516 10.8672 23.9922 11.0391 23.9922L13.6172 23.9805L17.5 19.3516L21.3789 23.9766L23.9609 23.9883C24.1328 23.9883 24.2734 23.8516 24.2734 23.6758C24.2734 23.6016 24.2461 23.5312 24.1992 23.4727L19.1172 17.418L24.1992 11.3672C24.2464 11.3099 24.2726 11.2383 24.2734 11.1641C24.2734 10.9922 24.1328 10.8516 23.9609 10.8516L21.3789 10.8633L17.5 15.4922L13.6211 10.8672L11.043 10.8555C10.8711 10.8555 10.7305 10.9922 10.7305 11.168C10.7305 11.2422 10.7578 11.3125 10.8047 11.3711L15.8789 17.4219L10.7969 23.4766C10.75 23.5312 10.7266 23.6055 10.7266 23.6797Z" fill="white"/>
<path d="M17.5 35C27.1641 35 35 27.1641 35 17.5C35 7.83594 27.1641 0 17.5 0C7.83594 0 0 7.83594 0 17.5C0 27.1641 7.83594 35 17.5 35ZM17.5 2.96875C25.5234 2.96875 32.0312 9.47656 32.0312 17.5C32.0312 25.5234 25.5234 32.0312 17.5 32.0312C9.47656 32.0312 2.96875 25.5234 2.96875 17.5C2.96875 9.47656 9.47656 2.96875 17.5 2.96875Z" fill="white"/>
</svg>
