<svg width="40" height="40" viewBox="0 0 40 40" fill="none" xmlns="http://www.w3.org/2000/svg">
<path fill-rule="evenodd" clip-rule="evenodd" d="M20.0001 1.66675C9.87508 1.66675 1.66675 9.87508 1.66675 20.0001C1.66675 30.1251 9.87508 38.3334 20.0001 38.3334C30.1251 38.3334 38.3334 30.1251 38.3334 20.0001C38.3334 9.87508 30.1251 1.66675 20.0001 1.66675ZM14.5117 23.6784C14.1974 23.982 13.7764 24.15 13.3394 24.1462C12.9024 24.1424 12.4844 23.9671 12.1754 23.6581C11.8664 23.3491 11.6911 22.9311 11.6873 22.4941C11.6835 22.0571 11.8515 21.6361 12.1551 21.3217L18.8217 14.6551C19.1343 14.3426 19.5581 14.1671 20.0001 14.1671C20.442 14.1671 20.8659 14.3426 21.1784 14.6551L27.8451 21.3217C28.1487 21.6361 28.3167 22.0571 28.3129 22.4941C28.3091 22.9311 28.1338 23.3491 27.8248 23.6581C27.5158 23.9671 27.0977 24.1424 26.6607 24.1462C26.2238 24.15 25.8027 23.982 25.4884 23.6784L20.0001 18.1901L14.5117 23.6784Z" fill="#333333"/>
</svg>
