<svg width="32" height="32" viewBox="0 0 32 32" fill="none" xmlns="http://www.w3.org/2000/svg">
<g clip-path="url(#clip0_39_76)">
<path d="M31.897 9.41956C31.879 8.07595 31.6271 6.74569 31.1525 5.4883C30.7409 4.4277 30.1122 3.46448 29.3066 2.66019C28.5011 1.85591 27.5363 1.22823 26.474 0.817275C25.2309 0.351338 23.9175 0.0993971 22.5899 0.0721813C20.8806 -0.00410211 20.3386 -0.0253906 15.9996 -0.0253906C11.6605 -0.0253906 11.1044 -0.0253905 9.4075 0.0721813C8.08048 0.0995972 6.76773 0.351535 5.5251 0.817275C4.46266 1.22794 3.49777 1.85552 2.69217 2.65984C1.88657 3.46417 1.258 4.42754 0.846684 5.4883C0.379075 6.72859 0.127283 8.03956 0.102189 9.36457C0.0257845 11.073 0.00268555 11.614 0.00268555 15.9462C0.00268555 20.2784 0.00268553 20.8319 0.102189 22.5279C0.128841 23.8549 0.379375 25.1641 0.846684 26.4077C1.25869 27.4681 1.88773 28.4311 2.6936 29.2351C3.49946 30.0391 4.46444 30.6664 5.52688 31.077C6.76611 31.5616 8.07908 31.8316 9.40928 31.8753C11.1204 31.9515 11.6623 31.9746 16.0014 31.9746C20.3404 31.9746 20.8965 31.9746 22.5934 31.8753C23.921 31.8492 25.2345 31.5978 26.4776 31.1319C27.5396 30.7205 28.5041 30.0927 29.3096 29.2884C30.1151 28.4842 30.7439 27.5212 31.156 26.4609C31.6233 25.2191 31.8739 23.9099 31.9005 22.5811C31.9769 20.8745 32 20.3334 32 15.9994C31.9965 11.6673 31.9965 11.1173 31.897 9.41956ZM15.9889 24.1387C11.4509 24.1387 7.77458 20.4682 7.77458 15.9374C7.77458 11.4065 11.4509 7.736 15.9889 7.736C18.1675 7.736 20.2568 8.60007 21.7973 10.1381C23.3378 11.6762 24.2032 13.7622 24.2032 15.9374C24.2032 18.1125 23.3378 20.1985 21.7973 21.7366C20.2568 23.2746 18.1675 24.1387 15.9889 24.1387ZM24.5302 9.34505C24.2786 9.34528 24.0294 9.29598 23.7969 9.19995C23.5644 9.10393 23.3532 8.96307 23.1752 8.78544C22.9973 8.60781 22.8563 8.3969 22.7601 8.16477C22.6639 7.93264 22.6145 7.68385 22.6147 7.43264C22.6147 7.18162 22.6643 6.93305 22.7605 6.70114C22.8567 6.46922 22.9977 6.2585 23.1755 6.08099C23.3533 5.90349 23.5643 5.76269 23.7966 5.66663C24.0289 5.57057 24.2779 5.52112 24.5293 5.52112C24.7807 5.52112 25.0297 5.57057 25.262 5.66663C25.4942 5.76269 25.7053 5.90349 25.8831 6.08099C26.0609 6.2585 26.2019 6.46922 26.2981 6.70114C26.3943 6.93305 26.4438 7.18162 26.4438 7.43264C26.4438 8.48997 25.5874 9.34505 24.5302 9.34505Z" fill="#333333"/>
<path d="M15.9889 21.2649C18.9358 21.2649 21.3248 18.8798 21.3248 15.9375C21.3248 12.9953 18.9358 10.6101 15.9889 10.6101C13.042 10.6101 10.6531 12.9953 10.6531 15.9375C10.6531 18.8798 13.042 21.2649 15.9889 21.2649Z" fill="#333333"/>
</g>
<defs>
<clipPath id="clip0_39_76">
<rect width="32" height="32" fill="white" transform="translate(32 32) rotate(-180)"/>
</clipPath>
</defs>
</svg>
