<svg width="32" height="30" viewBox="0 0 32 30" fill="none" xmlns="http://www.w3.org/2000/svg">
<path d="M16 0C24.8366 0 32 5.69566 32 12.7235C32 19.7498 24.8366 25.4455 16 25.4455C15.1201 25.446 14.2411 25.3888 13.3684 25.2745L6.65143 29.7561C5.888 30.168 5.61829 30.123 5.93219 29.1141L7.29143 23.3967C2.90286 21.1271 0 17.1942 0 12.7235C0 5.69721 7.16343 0 16 0ZM25.0011 12.5292L27.2411 10.3156C27.3704 10.1787 27.4425 9.9959 27.4423 9.80581C27.4421 9.61571 27.3695 9.43312 27.2399 9.2965C27.1104 9.15988 26.9339 9.0799 26.7476 9.0734C26.5614 9.0669 26.3799 9.1344 26.2415 9.26167L23.3036 12.1623V9.76532C23.3036 9.57072 23.2278 9.3841 23.093 9.2465C22.9581 9.1089 22.7751 9.0316 22.5844 9.0316C22.3936 9.0316 22.2107 9.1089 22.0758 9.2465C21.9409 9.3841 21.8651 9.57072 21.8651 9.76532V13.7402C21.8382 13.8535 21.8382 13.9719 21.8651 14.0853L21.8651 16.3222C21.8651 16.5168 21.9409 16.7034 22.0758 16.841C22.2107 16.9786 22.3936 17.0559 22.5844 17.0559C22.7751 17.0559 22.9581 16.9786 23.093 16.841C23.2278 16.7034 23.3036 16.5168 23.3036 16.3222L23.3036 14.2034L23.9543 13.5614L26.1303 16.7217C26.1846 16.8006 26.2536 16.8678 26.3334 16.9195C26.4132 16.9712 26.5022 17.0063 26.5953 17.0229C26.6884 17.0395 26.7838 17.0372 26.8761 17.0162C26.9683 16.9952 27.0556 16.9559 27.133 16.9004C27.2103 16.845 27.2762 16.7746 27.3268 16.6932C27.3775 16.6118 27.412 16.521 27.4282 16.426C27.4445 16.3311 27.4423 16.2337 27.4217 16.1396C27.4011 16.0455 27.3625 15.9565 27.3082 15.8776L25.0011 12.5277V12.5292ZM20.4937 15.5201H18.269L18.269 9.78864C18.2604 9.60009 18.181 9.42214 18.0472 9.29178C17.9134 9.16142 17.7355 9.08868 17.5505 9.08868C17.3655 9.08868 17.1875 9.16142 17.0537 9.29178C16.9199 9.42214 16.8405 9.60009 16.832 9.78864L16.832 16.2538C16.832 16.6579 17.152 16.9875 17.5497 16.9875H20.4937C20.6845 16.9875 20.8674 16.9102 21.0023 16.7726C21.1372 16.635 21.213 16.4484 21.213 16.2538C21.213 16.0592 21.1372 15.8726 21.0023 15.735C20.8674 15.5974 20.6845 15.5201 20.4937 15.5201ZM11.5688 13.8225L12.6293 11.169L13.6015 13.8225H11.5688ZM15.4133 14.5811L15.4164 14.5563C15.416 14.3714 15.3468 14.1936 15.2229 14.0588L13.629 9.70625C13.5621 9.49883 13.4349 9.31715 13.2641 9.18549C13.0934 9.05382 12.8874 8.97844 12.6735 8.96942C12.4581 8.96845 12.2475 9.03442 12.0698 9.15855C11.892 9.28267 11.7555 9.45907 11.6785 9.66428L9.14743 15.9988C9.11171 16.088 9.09356 16.1836 9.09403 16.2799C9.09449 16.3763 9.11356 16.4716 9.15014 16.5605C9.18671 16.6493 9.24009 16.7299 9.30721 16.7977C9.37433 16.8655 9.45389 16.9192 9.54133 16.9556C9.62878 16.9921 9.72241 17.0106 9.81687 17.0101C9.91133 17.0096 10.0048 16.9902 10.0919 16.9529C10.179 16.9156 10.258 16.8611 10.3245 16.7926C10.3909 16.7242 10.4435 16.643 10.4792 16.5538L10.9821 15.29H14.1364L14.592 16.5336C14.623 16.6265 14.6719 16.7122 14.7359 16.7855C14.8 16.8588 14.8778 16.9183 14.9647 16.9603C15.0517 17.0024 15.146 17.0263 15.2422 17.0305C15.3383 17.0347 15.4343 17.0191 15.5245 16.9848C15.6147 16.9505 15.6972 16.898 15.7671 16.8306C15.837 16.7631 15.893 16.682 15.9316 16.5921C15.9703 16.5022 15.9909 16.4053 15.9921 16.3071C15.9934 16.209 15.9754 16.1115 15.939 16.0206L15.4133 14.5811ZM10.3512 9.79641C10.3512 9.60208 10.2757 9.41569 10.1411 9.27814C10.0066 9.14058 9.82401 9.0631 9.63352 9.06269L4.68876 9.06269C4.49801 9.06269 4.31507 9.13999 4.18018 9.27759C4.0453 9.41519 3.96952 9.60182 3.96952 9.79641C3.96952 9.991 4.0453 10.1776 4.18018 10.3152C4.31507 10.4528 4.49801 10.5301 4.68876 10.5301H6.45638L6.45638 16.3377C6.45638 16.5323 6.53216 16.7189 6.66704 16.8565C6.80192 16.9941 6.98487 17.0714 7.17562 17.0714C7.36637 17.0714 7.54931 16.9941 7.6842 16.8565C7.81908 16.7189 7.89486 16.5323 7.89486 16.3377L7.89486 10.5301H9.632C9.82275 10.5301 10.0057 10.4528 10.1406 10.3152C10.2755 10.1776 10.3512 9.991 10.3512 9.79641Z" fill="#333333"/>
</svg>
