<svg width="120" height="48" viewBox="0 0 120 48" fill="none" xmlns="http://www.w3.org/2000/svg">
<path fill-rule="evenodd" clip-rule="evenodd" d="M0 48V0H120V48H0Z" fill="#0058AB"/>
<path fill-rule="evenodd" clip-rule="evenodd" d="M2.40002 24C2.40002 35.7996 26.5392 45.6 60.0084 45.6C93.4776 45.6 117.6 35.7996 117.6 24C117.6 12.2004 93.4608 2.39999 60.0084 2.39999C26.5572 2.39999 2.40002 12.2004 2.40002 24Z" fill="#FBD914"/>
<path d="M55.7376 31.206C56.1156 31.7424 56.5296 32.2464 57.0096 32.7H44.0256C44.0256 32.196 43.5264 31.1724 42.9756 30.366C41.7982 28.6275 40.623 26.8875 39.45 25.146V31.206C39.45 31.71 39.45 32.196 39.708 32.7H28.89C29.148 32.196 29.148 31.7088 29.148 31.206V16.8C29.148 16.296 29.148 15.8088 28.89 15.306H39.708C39.45 15.81 39.45 16.296 39.45 16.8V23.0952C39.45 23.0952 42.906 18.6972 43.698 17.6724C44.3004 16.9008 45.0396 15.8088 45.0396 15.306H56.322C55.548 15.81 54.6888 16.716 53.9832 17.5548L49.8552 22.4748C49.8552 22.4748 55.05 30.2148 55.7376 31.2048V31.206ZM59.1432 16.8V31.2048C59.1432 31.7088 59.1432 32.1948 58.8852 32.6988H79.7652V27.8628C79.2492 28.1148 78.75 28.1148 78.234 28.1148H69.4452V25.8324H77.8896V22.1724H69.4452V19.872H78.234C78.75 19.872 79.2492 19.872 79.7652 20.1072V15.2892H58.8852C59.1432 15.8088 59.1432 16.2972 59.1432 16.8ZM108.694 31.2048C108.866 31.758 109.158 32.262 109.537 32.6988H98.22C98.2716 32.1948 98.082 31.7076 97.8756 31.2048C97.8756 31.2048 97.704 30.8016 97.4628 30.2136L97.3596 29.9616H90.8412L90.738 30.2304C90.738 30.2304 90.5484 30.7176 90.3768 31.2216C90.2052 31.7256 90.0156 32.2116 90.084 32.7156H81.1584C81.5228 32.2752 81.7971 31.7676 81.966 31.2216L87.3156 16.8168C87.504 16.3128 87.6936 15.8256 87.6252 15.3228H102.709C102.571 15.8268 102.846 16.3128 103.036 16.8168C103.482 17.9088 108.316 30.2304 108.694 31.2048ZM95.9316 26.2848L94.35 22.2564C94.2093 21.8839 94.0943 21.5022 94.0056 21.114C93.9368 21.5033 93.8332 21.8856 93.696 22.2564C93.6444 22.4244 92.9736 24.1872 92.1996 26.2848H95.9316ZM23.7636 15.3048H12C12.258 15.8088 12.258 16.296 12.258 16.8V31.2048C12.258 31.7088 12.258 32.1948 12 32.6988H23.7648C23.5068 32.1948 23.5068 31.7076 23.5068 31.2048V16.8C23.5068 16.296 23.5068 15.8088 23.7648 15.306L23.7636 15.3048ZM105.082 16.6824C105.03 15.4572 106.01 14.4324 107.266 14.3988H107.422C108.694 14.382 109.742 15.3564 109.76 16.5984V16.6824C109.794 17.9424 108.78 18.9984 107.473 19.0332C106.183 19.0668 105.1 18.0756 105.065 16.8C105.082 16.7664 105.082 16.716 105.082 16.6824ZM105.546 16.6824C105.546 17.6904 106.39 18.5124 107.422 18.5124C108.454 18.5124 109.296 17.6892 109.296 16.6824C109.296 15.6744 108.454 14.8524 107.422 14.8524C106.423 14.8188 105.581 15.5748 105.546 16.548V16.6824ZM106.957 18.042H106.544V15.2892H107.593C107.827 15.2924 108.05 15.3875 108.214 15.5539C108.378 15.7204 108.47 15.9447 108.469 16.1784C108.469 16.5144 108.281 16.8168 107.971 16.9848L108.574 18.042H108.109L107.558 17.0688H106.957V18.042ZM106.957 16.6824H107.525C107.8 16.6992 108.041 16.4976 108.041 16.2288C108.041 15.96 107.851 15.7248 107.576 15.7248H106.957V16.6824Z" fill="#0058A3"/>
</svg>
