<svg width="7" height="29" viewBox="0 0 7 29" fill="none" xmlns="http://www.w3.org/2000/svg">
<path d="M3.5 24C2.67157 24 2 24.6716 2 25.5C2 26.3284 2.67157 27 3.5 27C4.32843 27 5 26.3284 5 25.5C5 24.6716 4.32843 24 3.5 24Z" stroke="black" stroke-width="3" stroke-linecap="round" stroke-linejoin="round"/>
<path d="M3.5 13C2.67157 13 2 13.6716 2 14.5C2 15.3284 2.67157 16 3.5 16C4.32843 16 5 15.3284 5 14.5C5 13.6716 4.32843 13 3.5 13Z" stroke="black" stroke-width="3" stroke-linecap="round" stroke-linejoin="round"/>
<path d="M3.5 2C2.67157 2 2 2.67157 2 3.5C2 4.32843 2.67157 5 3.5 5C4.32843 5 5 4.32843 5 3.5C5 2.67157 4.32843 2 3.5 2Z" stroke="black" stroke-width="3" stroke-linecap="round" stroke-linejoin="round"/>
</svg>
